<mxfile host="app.diagrams.net" modified="2023-05-14T07:04:12.656Z" agent="Mozilla/5.0 (Windows NT 10.0; Win64; x64) AppleWebKit/537.36 (KHTML, like Gecko) Chrome/113.0.0.0 Safari/537.36 Edg/113.0.1774.35" etag="b24BeWpfea1hLLSUXN-C" version="21.3.0" type="device">
  <diagram name="Page-1" id="QXAzlw06Yn_SB9_V16cc">
    <mxGraphModel dx="1725" dy="451" grid="1" gridSize="10" guides="1" tooltips="1" connect="1" arrows="1" fold="1" page="1" pageScale="1" pageWidth="850" pageHeight="1100" math="0" shadow="0">
      <root>
        <mxCell id="0" />
        <mxCell id="1" parent="0" />
        <mxCell id="KXTmrSOm8hdOlPfnSRq--10" value="stations" style="swimlane;fontStyle=0;childLayout=stackLayout;horizontal=1;startSize=26;fillColor=none;horizontalStack=0;resizeParent=1;resizeParentMax=0;resizeLast=0;collapsible=1;marginBottom=0;whiteSpace=wrap;html=1;" parent="1" vertex="1">
          <mxGeometry x="40" y="40" width="150" height="132" as="geometry" />
        </mxCell>
        <mxCell id="KXTmrSOm8hdOlPfnSRq--11" value="+ id" style="text;strokeColor=none;fillColor=none;align=left;verticalAlign=top;spacingLeft=4;spacingRight=4;overflow=hidden;rotatable=0;points=[[0,0.5],[1,0.5]];portConstraint=eastwest;whiteSpace=wrap;html=1;" parent="KXTmrSOm8hdOlPfnSRq--10" vertex="1">
          <mxGeometry y="26" width="150" height="26" as="geometry" />
        </mxCell>
        <mxCell id="KXTmrSOm8hdOlPfnSRq--12" value="+ name" style="text;strokeColor=none;fillColor=none;align=left;verticalAlign=top;spacingLeft=4;spacingRight=4;overflow=hidden;rotatable=0;points=[[0,0.5],[1,0.5]];portConstraint=eastwest;whiteSpace=wrap;html=1;" parent="KXTmrSOm8hdOlPfnSRq--10" vertex="1">
          <mxGeometry y="52" width="150" height="28" as="geometry" />
        </mxCell>
        <mxCell id="KXTmrSOm8hdOlPfnSRq--13" value="+ address" style="text;strokeColor=none;fillColor=none;align=left;verticalAlign=top;spacingLeft=4;spacingRight=4;overflow=hidden;rotatable=0;points=[[0,0.5],[1,0.5]];portConstraint=eastwest;whiteSpace=wrap;html=1;" parent="KXTmrSOm8hdOlPfnSRq--10" vertex="1">
          <mxGeometry y="80" width="150" height="26" as="geometry" />
        </mxCell>
        <mxCell id="KXTmrSOm8hdOlPfnSRq--21" value="+ province" style="text;strokeColor=none;fillColor=none;align=left;verticalAlign=top;spacingLeft=4;spacingRight=4;overflow=hidden;rotatable=0;points=[[0,0.5],[1,0.5]];portConstraint=eastwest;whiteSpace=wrap;html=1;" parent="KXTmrSOm8hdOlPfnSRq--10" vertex="1">
          <mxGeometry y="106" width="150" height="26" as="geometry" />
        </mxCell>
        <mxCell id="KXTmrSOm8hdOlPfnSRq--22" value="trips" style="swimlane;fontStyle=0;childLayout=stackLayout;horizontal=1;startSize=26;fillColor=none;horizontalStack=0;resizeParent=1;resizeParentMax=0;resizeLast=0;collapsible=1;marginBottom=0;whiteSpace=wrap;html=1;" parent="1" vertex="1">
          <mxGeometry x="335.33" y="40" width="140" height="162" as="geometry" />
        </mxCell>
        <mxCell id="KXTmrSOm8hdOlPfnSRq--23" value="+ id" style="text;strokeColor=none;fillColor=none;align=left;verticalAlign=top;spacingLeft=4;spacingRight=4;overflow=hidden;rotatable=0;points=[[0,0.5],[1,0.5]];portConstraint=eastwest;whiteSpace=wrap;html=1;" parent="KXTmrSOm8hdOlPfnSRq--22" vertex="1">
          <mxGeometry y="26" width="140" height="24" as="geometry" />
        </mxCell>
        <mxCell id="KXTmrSOm8hdOlPfnSRq--25" value="+ toStation" style="text;strokeColor=none;fillColor=none;align=left;verticalAlign=top;spacingLeft=4;spacingRight=4;overflow=hidden;rotatable=0;points=[[0,0.5],[1,0.5]];portConstraint=eastwest;whiteSpace=wrap;html=1;" parent="KXTmrSOm8hdOlPfnSRq--22" vertex="1">
          <mxGeometry y="50" width="140" height="30" as="geometry" />
        </mxCell>
        <mxCell id="KXTmrSOm8hdOlPfnSRq--24" value="+ fromStation" style="text;strokeColor=none;fillColor=none;align=left;verticalAlign=top;spacingLeft=4;spacingRight=4;overflow=hidden;rotatable=0;points=[[0,0.5],[1,0.5]];portConstraint=eastwest;whiteSpace=wrap;html=1;" parent="KXTmrSOm8hdOlPfnSRq--22" vertex="1">
          <mxGeometry y="80" width="140" height="30" as="geometry" />
        </mxCell>
        <mxCell id="KXTmrSOm8hdOlPfnSRq--26" value="+ startTime" style="text;strokeColor=none;fillColor=none;align=left;verticalAlign=top;spacingLeft=4;spacingRight=4;overflow=hidden;rotatable=0;points=[[0,0.5],[1,0.5]];portConstraint=eastwest;whiteSpace=wrap;html=1;" parent="KXTmrSOm8hdOlPfnSRq--22" vertex="1">
          <mxGeometry y="110" width="140" height="26" as="geometry" />
        </mxCell>
        <mxCell id="KXTmrSOm8hdOlPfnSRq--28" value="+ price&lt;br&gt;" style="text;strokeColor=none;fillColor=none;align=left;verticalAlign=top;spacingLeft=4;spacingRight=4;overflow=hidden;rotatable=0;points=[[0,0.5],[1,0.5]];portConstraint=eastwest;whiteSpace=wrap;html=1;" parent="KXTmrSOm8hdOlPfnSRq--22" vertex="1">
          <mxGeometry y="136" width="140" height="26" as="geometry" />
        </mxCell>
        <mxCell id="KXTmrSOm8hdOlPfnSRq--29" value="passengerCarCompanies" style="swimlane;fontStyle=0;childLayout=stackLayout;horizontal=1;startSize=26;fillColor=none;horizontalStack=0;resizeParent=1;resizeParentMax=0;resizeLast=0;collapsible=1;marginBottom=0;whiteSpace=wrap;html=1;" parent="1" vertex="1">
          <mxGeometry x="610" y="40" width="170" height="150" as="geometry">
            <mxRectangle x="590" y="60" width="180" height="30" as="alternateBounds" />
          </mxGeometry>
        </mxCell>
        <mxCell id="KXTmrSOm8hdOlPfnSRq--30" value="+ id" style="text;strokeColor=none;fillColor=none;align=left;verticalAlign=top;spacingLeft=4;spacingRight=4;overflow=hidden;rotatable=0;points=[[0,0.5],[1,0.5]];portConstraint=eastwest;whiteSpace=wrap;html=1;" parent="KXTmrSOm8hdOlPfnSRq--29" vertex="1">
          <mxGeometry y="26" width="170" height="26" as="geometry" />
        </mxCell>
        <mxCell id="KXTmrSOm8hdOlPfnSRq--31" value="+ name" style="text;strokeColor=none;fillColor=none;align=left;verticalAlign=top;spacingLeft=4;spacingRight=4;overflow=hidden;rotatable=0;points=[[0,0.5],[1,0.5]];portConstraint=eastwest;whiteSpace=wrap;html=1;" parent="KXTmrSOm8hdOlPfnSRq--29" vertex="1">
          <mxGeometry y="52" width="170" height="26" as="geometry" />
        </mxCell>
        <mxCell id="KXTmrSOm8hdOlPfnSRq--35" value="+ image" style="text;strokeColor=none;fillColor=none;align=left;verticalAlign=top;spacingLeft=4;spacingRight=4;overflow=hidden;rotatable=0;points=[[0,0.5],[1,0.5]];portConstraint=eastwest;whiteSpace=wrap;html=1;" parent="KXTmrSOm8hdOlPfnSRq--29" vertex="1">
          <mxGeometry y="78" width="170" height="22" as="geometry" />
        </mxCell>
        <mxCell id="KXTmrSOm8hdOlPfnSRq--32" value="+ description" style="text;strokeColor=none;fillColor=none;align=left;verticalAlign=top;spacingLeft=4;spacingRight=4;overflow=hidden;rotatable=0;points=[[0,0.5],[1,0.5]];portConstraint=eastwest;whiteSpace=wrap;html=1;" parent="KXTmrSOm8hdOlPfnSRq--29" vertex="1">
          <mxGeometry y="100" width="170" height="22" as="geometry" />
        </mxCell>
        <mxCell id="KXTmrSOm8hdOlPfnSRq--68" value="+ trip_id" style="text;strokeColor=none;fillColor=none;align=left;verticalAlign=top;spacingLeft=4;spacingRight=4;overflow=hidden;rotatable=0;points=[[0,0.5],[1,0.5]];portConstraint=eastwest;whiteSpace=wrap;html=1;" parent="KXTmrSOm8hdOlPfnSRq--29" vertex="1">
          <mxGeometry y="122" width="170" height="28" as="geometry" />
        </mxCell>
        <mxCell id="KXTmrSOm8hdOlPfnSRq--36" value="vehicles" style="swimlane;fontStyle=0;childLayout=stackLayout;horizontal=1;startSize=26;fillColor=none;horizontalStack=0;resizeParent=1;resizeParentMax=0;resizeLast=0;collapsible=1;marginBottom=0;whiteSpace=wrap;html=1;" parent="1" vertex="1">
          <mxGeometry x="600" y="240" width="180" height="100" as="geometry" />
        </mxCell>
        <mxCell id="KXTmrSOm8hdOlPfnSRq--37" value="+ id" style="text;strokeColor=none;fillColor=none;align=left;verticalAlign=top;spacingLeft=4;spacingRight=4;overflow=hidden;rotatable=0;points=[[0,0.5],[1,0.5]];portConstraint=eastwest;whiteSpace=wrap;html=1;" parent="KXTmrSOm8hdOlPfnSRq--36" vertex="1">
          <mxGeometry y="26" width="180" height="22" as="geometry" />
        </mxCell>
        <mxCell id="KXTmrSOm8hdOlPfnSRq--38" value="+ name" style="text;strokeColor=none;fillColor=none;align=left;verticalAlign=top;spacingLeft=4;spacingRight=4;overflow=hidden;rotatable=0;points=[[0,0.5],[1,0.5]];portConstraint=eastwest;whiteSpace=wrap;html=1;" parent="KXTmrSOm8hdOlPfnSRq--36" vertex="1">
          <mxGeometry y="48" width="180" height="26" as="geometry" />
        </mxCell>
        <mxCell id="KXTmrSOm8hdOlPfnSRq--72" value="+&amp;nbsp;passengerCarCompanie_id" style="text;strokeColor=none;fillColor=none;align=left;verticalAlign=top;spacingLeft=4;spacingRight=4;overflow=hidden;rotatable=0;points=[[0,0.5],[1,0.5]];portConstraint=eastwest;whiteSpace=wrap;html=1;" parent="KXTmrSOm8hdOlPfnSRq--36" vertex="1">
          <mxGeometry y="74" width="180" height="26" as="geometry" />
        </mxCell>
        <mxCell id="KXTmrSOm8hdOlPfnSRq--40" value="seats" style="swimlane;fontStyle=0;childLayout=stackLayout;horizontal=1;startSize=26;fillColor=none;horizontalStack=0;resizeParent=1;resizeParentMax=0;resizeLast=0;collapsible=1;marginBottom=0;whiteSpace=wrap;html=1;" parent="1" vertex="1">
          <mxGeometry x="600" y="380" width="140" height="130" as="geometry" />
        </mxCell>
        <mxCell id="KXTmrSOm8hdOlPfnSRq--41" value="+ id" style="text;strokeColor=none;fillColor=none;align=left;verticalAlign=top;spacingLeft=4;spacingRight=4;overflow=hidden;rotatable=0;points=[[0,0.5],[1,0.5]];portConstraint=eastwest;whiteSpace=wrap;html=1;" parent="KXTmrSOm8hdOlPfnSRq--40" vertex="1">
          <mxGeometry y="26" width="140" height="26" as="geometry" />
        </mxCell>
        <mxCell id="KXTmrSOm8hdOlPfnSRq--42" value="+ name" style="text;strokeColor=none;fillColor=none;align=left;verticalAlign=top;spacingLeft=4;spacingRight=4;overflow=hidden;rotatable=0;points=[[0,0.5],[1,0.5]];portConstraint=eastwest;whiteSpace=wrap;html=1;" parent="KXTmrSOm8hdOlPfnSRq--40" vertex="1">
          <mxGeometry y="52" width="140" height="26" as="geometry" />
        </mxCell>
        <mxCell id="KXTmrSOm8hdOlPfnSRq--43" value="+ status" style="text;strokeColor=none;fillColor=none;align=left;verticalAlign=top;spacingLeft=4;spacingRight=4;overflow=hidden;rotatable=0;points=[[0,0.5],[1,0.5]];portConstraint=eastwest;whiteSpace=wrap;html=1;" parent="KXTmrSOm8hdOlPfnSRq--40" vertex="1">
          <mxGeometry y="78" width="140" height="26" as="geometry" />
        </mxCell>
        <mxCell id="KXTmrSOm8hdOlPfnSRq--76" value="+&amp;nbsp;vehicle_id" style="text;strokeColor=none;fillColor=none;align=left;verticalAlign=top;spacingLeft=4;spacingRight=4;overflow=hidden;rotatable=0;points=[[0,0.5],[1,0.5]];portConstraint=eastwest;whiteSpace=wrap;html=1;" parent="KXTmrSOm8hdOlPfnSRq--40" vertex="1">
          <mxGeometry y="104" width="140" height="26" as="geometry" />
        </mxCell>
        <mxCell id="KXTmrSOm8hdOlPfnSRq--44" value="users" style="swimlane;fontStyle=0;childLayout=stackLayout;horizontal=1;startSize=26;fillColor=none;horizontalStack=0;resizeParent=1;resizeParentMax=0;resizeLast=0;collapsible=1;marginBottom=0;whiteSpace=wrap;html=1;" parent="1" vertex="1">
          <mxGeometry x="50" y="260" width="140" height="156" as="geometry" />
        </mxCell>
        <mxCell id="KXTmrSOm8hdOlPfnSRq--45" value="+ id" style="text;strokeColor=none;fillColor=none;align=left;verticalAlign=top;spacingLeft=4;spacingRight=4;overflow=hidden;rotatable=0;points=[[0,0.5],[1,0.5]];portConstraint=eastwest;whiteSpace=wrap;html=1;" parent="KXTmrSOm8hdOlPfnSRq--44" vertex="1">
          <mxGeometry y="26" width="140" height="26" as="geometry" />
        </mxCell>
        <mxCell id="KXTmrSOm8hdOlPfnSRq--46" value="+ name" style="text;strokeColor=none;fillColor=none;align=left;verticalAlign=top;spacingLeft=4;spacingRight=4;overflow=hidden;rotatable=0;points=[[0,0.5],[1,0.5]];portConstraint=eastwest;whiteSpace=wrap;html=1;" parent="KXTmrSOm8hdOlPfnSRq--44" vertex="1">
          <mxGeometry y="52" width="140" height="26" as="geometry" />
        </mxCell>
        <mxCell id="KXTmrSOm8hdOlPfnSRq--47" value="+ numberPhone" style="text;strokeColor=none;fillColor=none;align=left;verticalAlign=top;spacingLeft=4;spacingRight=4;overflow=hidden;rotatable=0;points=[[0,0.5],[1,0.5]];portConstraint=eastwest;whiteSpace=wrap;html=1;" parent="KXTmrSOm8hdOlPfnSRq--44" vertex="1">
          <mxGeometry y="78" width="140" height="26" as="geometry" />
        </mxCell>
        <mxCell id="KXTmrSOm8hdOlPfnSRq--48" value="+ email" style="text;strokeColor=none;fillColor=none;align=left;verticalAlign=top;spacingLeft=4;spacingRight=4;overflow=hidden;rotatable=0;points=[[0,0.5],[1,0.5]];portConstraint=eastwest;whiteSpace=wrap;html=1;" parent="KXTmrSOm8hdOlPfnSRq--44" vertex="1">
          <mxGeometry y="104" width="140" height="26" as="geometry" />
        </mxCell>
        <mxCell id="KXTmrSOm8hdOlPfnSRq--49" value="+ type" style="text;strokeColor=none;fillColor=none;align=left;verticalAlign=top;spacingLeft=4;spacingRight=4;overflow=hidden;rotatable=0;points=[[0,0.5],[1,0.5]];portConstraint=eastwest;whiteSpace=wrap;html=1;" parent="KXTmrSOm8hdOlPfnSRq--44" vertex="1">
          <mxGeometry y="130" width="140" height="26" as="geometry" />
        </mxCell>
        <mxCell id="KXTmrSOm8hdOlPfnSRq--50" value="tickets" style="swimlane;fontStyle=0;childLayout=stackLayout;horizontal=1;startSize=26;fillColor=none;horizontalStack=0;resizeParent=1;resizeParentMax=0;resizeLast=0;collapsible=1;marginBottom=0;whiteSpace=wrap;html=1;" parent="1" vertex="1">
          <mxGeometry x="335.33" y="260" width="140" height="104" as="geometry" />
        </mxCell>
        <mxCell id="KXTmrSOm8hdOlPfnSRq--51" value="+ id" style="text;strokeColor=none;fillColor=none;align=left;verticalAlign=top;spacingLeft=4;spacingRight=4;overflow=hidden;rotatable=0;points=[[0,0.5],[1,0.5]];portConstraint=eastwest;whiteSpace=wrap;html=1;" parent="KXTmrSOm8hdOlPfnSRq--50" vertex="1">
          <mxGeometry y="26" width="140" height="26" as="geometry" />
        </mxCell>
        <mxCell id="KXTmrSOm8hdOlPfnSRq--53" value="+ trip_id" style="text;strokeColor=none;fillColor=none;align=left;verticalAlign=top;spacingLeft=4;spacingRight=4;overflow=hidden;rotatable=0;points=[[0,0.5],[1,0.5]];portConstraint=eastwest;whiteSpace=wrap;html=1;" parent="KXTmrSOm8hdOlPfnSRq--50" vertex="1">
          <mxGeometry y="52" width="140" height="26" as="geometry" />
        </mxCell>
        <mxCell id="KXTmrSOm8hdOlPfnSRq--52" value="+ user_id" style="text;strokeColor=none;fillColor=none;align=left;verticalAlign=top;spacingLeft=4;spacingRight=4;overflow=hidden;rotatable=0;points=[[0,0.5],[1,0.5]];portConstraint=eastwest;whiteSpace=wrap;html=1;" parent="KXTmrSOm8hdOlPfnSRq--50" vertex="1">
          <mxGeometry y="78" width="140" height="26" as="geometry" />
        </mxCell>
        <mxCell id="KXTmrSOm8hdOlPfnSRq--54" value="Relation" style="endArrow=open;html=1;endSize=12;startArrow=diamondThin;startSize=14;startFill=0;edgeStyle=orthogonalEdgeStyle;rounded=0;exitX=0;exitY=0.5;exitDx=0;exitDy=0;entryX=0;entryY=0.5;entryDx=0;entryDy=0;" parent="1" source="KXTmrSOm8hdOlPfnSRq--52" target="KXTmrSOm8hdOlPfnSRq--45" edge="1">
          <mxGeometry x="0.0384" relative="1" as="geometry">
            <mxPoint x="340" y="250" as="sourcePoint" />
            <mxPoint x="230" y="500" as="targetPoint" />
            <Array as="points">
              <mxPoint x="270" y="350" />
              <mxPoint x="230" y="350" />
              <mxPoint x="230" y="480" />
              <mxPoint x="10" y="480" />
              <mxPoint x="10" y="299" />
            </Array>
            <mxPoint as="offset" />
          </mxGeometry>
        </mxCell>
        <mxCell id="KXTmrSOm8hdOlPfnSRq--55" value="0..n" style="edgeLabel;resizable=0;html=1;align=left;verticalAlign=top;" parent="KXTmrSOm8hdOlPfnSRq--54" connectable="0" vertex="1">
          <mxGeometry x="-1" relative="1" as="geometry">
            <mxPoint x="-40" as="offset" />
          </mxGeometry>
        </mxCell>
        <mxCell id="KXTmrSOm8hdOlPfnSRq--56" value="1" style="edgeLabel;resizable=0;html=1;align=right;verticalAlign=top;" parent="KXTmrSOm8hdOlPfnSRq--54" connectable="0" vertex="1">
          <mxGeometry x="1" relative="1" as="geometry" />
        </mxCell>
        <mxCell id="KXTmrSOm8hdOlPfnSRq--57" value="Relation" style="endArrow=open;html=1;endSize=12;startArrow=diamondThin;startSize=14;startFill=0;edgeStyle=orthogonalEdgeStyle;rounded=0;entryX=0;entryY=0.5;entryDx=0;entryDy=0;" parent="1" source="KXTmrSOm8hdOlPfnSRq--53" target="KXTmrSOm8hdOlPfnSRq--23" edge="1">
          <mxGeometry x="-0.2262" relative="1" as="geometry">
            <mxPoint x="280" y="299" as="sourcePoint" />
            <mxPoint x="500" y="250" as="targetPoint" />
            <Array as="points">
              <mxPoint x="240" y="325.0000000000001" />
              <mxPoint x="240" y="78" />
            </Array>
            <mxPoint as="offset" />
          </mxGeometry>
        </mxCell>
        <mxCell id="KXTmrSOm8hdOlPfnSRq--58" value="0..n" style="edgeLabel;resizable=0;html=1;align=left;verticalAlign=top;" parent="KXTmrSOm8hdOlPfnSRq--57" connectable="0" vertex="1">
          <mxGeometry x="-1" relative="1" as="geometry">
            <mxPoint x="-45" y="-40" as="offset" />
          </mxGeometry>
        </mxCell>
        <mxCell id="KXTmrSOm8hdOlPfnSRq--59" value="1" style="edgeLabel;resizable=0;html=1;align=right;verticalAlign=top;" parent="KXTmrSOm8hdOlPfnSRq--57" connectable="0" vertex="1">
          <mxGeometry x="1" relative="1" as="geometry">
            <mxPoint x="-15" y="-18" as="offset" />
          </mxGeometry>
        </mxCell>
        <mxCell id="KXTmrSOm8hdOlPfnSRq--62" value="Relation" style="endArrow=open;html=1;endSize=12;startArrow=diamondThin;startSize=14;startFill=0;edgeStyle=orthogonalEdgeStyle;rounded=0;entryX=0;entryY=0.5;entryDx=0;entryDy=0;" parent="1" source="KXTmrSOm8hdOlPfnSRq--24" target="KXTmrSOm8hdOlPfnSRq--11" edge="1">
          <mxGeometry relative="1" as="geometry">
            <mxPoint x="250" y="10" as="sourcePoint" />
            <mxPoint x="500" y="250" as="targetPoint" />
            <Array as="points">
              <mxPoint x="220" y="130" />
              <mxPoint x="220" y="190" />
              <mxPoint x="10" y="190" />
              <mxPoint x="10" y="79" />
            </Array>
          </mxGeometry>
        </mxCell>
        <mxCell id="KXTmrSOm8hdOlPfnSRq--63" value="0..n" style="edgeLabel;resizable=0;html=1;align=left;verticalAlign=top;" parent="KXTmrSOm8hdOlPfnSRq--62" connectable="0" vertex="1">
          <mxGeometry x="-1" relative="1" as="geometry">
            <mxPoint x="-35" y="-5" as="offset" />
          </mxGeometry>
        </mxCell>
        <mxCell id="KXTmrSOm8hdOlPfnSRq--64" value="1" style="edgeLabel;resizable=0;html=1;align=right;verticalAlign=top;" parent="KXTmrSOm8hdOlPfnSRq--62" connectable="0" vertex="1">
          <mxGeometry x="1" relative="1" as="geometry" />
        </mxCell>
        <mxCell id="KXTmrSOm8hdOlPfnSRq--65" value="Relation" style="endArrow=open;html=1;endSize=12;startArrow=diamondThin;startSize=14;startFill=0;edgeStyle=orthogonalEdgeStyle;rounded=0;entryX=1;entryY=0.5;entryDx=0;entryDy=0;exitX=0;exitY=0.5;exitDx=0;exitDy=0;" parent="1" source="KXTmrSOm8hdOlPfnSRq--25" target="KXTmrSOm8hdOlPfnSRq--11" edge="1">
          <mxGeometry relative="1" as="geometry">
            <mxPoint x="330" y="250" as="sourcePoint" />
            <mxPoint x="490" y="250" as="targetPoint" />
            <Array as="points">
              <mxPoint x="210" y="105" />
              <mxPoint x="210" y="79" />
            </Array>
          </mxGeometry>
        </mxCell>
        <mxCell id="KXTmrSOm8hdOlPfnSRq--66" value="0..n" style="edgeLabel;resizable=0;html=1;align=left;verticalAlign=top;" parent="KXTmrSOm8hdOlPfnSRq--65" connectable="0" vertex="1">
          <mxGeometry x="-1" relative="1" as="geometry">
            <mxPoint x="-35" y="-15" as="offset" />
          </mxGeometry>
        </mxCell>
        <mxCell id="KXTmrSOm8hdOlPfnSRq--67" value="1" style="edgeLabel;resizable=0;html=1;align=right;verticalAlign=top;" parent="KXTmrSOm8hdOlPfnSRq--65" connectable="0" vertex="1">
          <mxGeometry x="1" relative="1" as="geometry">
            <mxPoint x="20" y="-19" as="offset" />
          </mxGeometry>
        </mxCell>
        <mxCell id="KXTmrSOm8hdOlPfnSRq--69" value="Relation" style="endArrow=open;html=1;endSize=12;startArrow=diamondThin;startSize=14;startFill=0;edgeStyle=orthogonalEdgeStyle;rounded=0;entryX=1;entryY=0.5;entryDx=0;entryDy=0;exitX=0;exitY=0.5;exitDx=0;exitDy=0;" parent="1" source="KXTmrSOm8hdOlPfnSRq--68" target="KXTmrSOm8hdOlPfnSRq--23" edge="1">
          <mxGeometry relative="1" as="geometry">
            <mxPoint x="330" y="250" as="sourcePoint" />
            <mxPoint x="490" y="250" as="targetPoint" />
          </mxGeometry>
        </mxCell>
        <mxCell id="KXTmrSOm8hdOlPfnSRq--70" value="0..n" style="edgeLabel;resizable=0;html=1;align=left;verticalAlign=top;" parent="KXTmrSOm8hdOlPfnSRq--69" connectable="0" vertex="1">
          <mxGeometry x="-1" relative="1" as="geometry">
            <mxPoint x="-20" y="-3" as="offset" />
          </mxGeometry>
        </mxCell>
        <mxCell id="KXTmrSOm8hdOlPfnSRq--71" value="1" style="edgeLabel;resizable=0;html=1;align=right;verticalAlign=top;" parent="KXTmrSOm8hdOlPfnSRq--69" connectable="0" vertex="1">
          <mxGeometry x="1" relative="1" as="geometry">
            <mxPoint x="15" as="offset" />
          </mxGeometry>
        </mxCell>
        <mxCell id="KXTmrSOm8hdOlPfnSRq--73" value="Relation" style="endArrow=open;html=1;endSize=12;startArrow=diamondThin;startSize=14;startFill=0;edgeStyle=orthogonalEdgeStyle;rounded=0;entryX=1;entryY=0.5;entryDx=0;entryDy=0;exitX=1;exitY=0.5;exitDx=0;exitDy=0;" parent="1" source="KXTmrSOm8hdOlPfnSRq--37" target="KXTmrSOm8hdOlPfnSRq--30" edge="1">
          <mxGeometry x="-0.1101" relative="1" as="geometry">
            <mxPoint x="330" y="150" as="sourcePoint" />
            <mxPoint x="490" y="150" as="targetPoint" />
            <Array as="points">
              <mxPoint x="820" y="277" />
              <mxPoint x="820" y="79" />
            </Array>
            <mxPoint as="offset" />
          </mxGeometry>
        </mxCell>
        <mxCell id="KXTmrSOm8hdOlPfnSRq--74" value="0..n" style="edgeLabel;resizable=0;html=1;align=left;verticalAlign=top;" parent="KXTmrSOm8hdOlPfnSRq--73" connectable="0" vertex="1">
          <mxGeometry x="-1" relative="1" as="geometry" />
        </mxCell>
        <mxCell id="KXTmrSOm8hdOlPfnSRq--75" value="1" style="edgeLabel;resizable=0;html=1;align=right;verticalAlign=top;" parent="KXTmrSOm8hdOlPfnSRq--73" connectable="0" vertex="1">
          <mxGeometry x="1" relative="1" as="geometry" />
        </mxCell>
        <mxCell id="KXTmrSOm8hdOlPfnSRq--77" value="Relation" style="endArrow=open;html=1;endSize=12;startArrow=diamondThin;startSize=14;startFill=0;edgeStyle=orthogonalEdgeStyle;rounded=0;entryX=0;entryY=0.5;entryDx=0;entryDy=0;" parent="1" source="KXTmrSOm8hdOlPfnSRq--76" target="KXTmrSOm8hdOlPfnSRq--37" edge="1">
          <mxGeometry relative="1" as="geometry">
            <mxPoint x="590" y="499" as="sourcePoint" />
            <mxPoint x="510" y="450" as="targetPoint" />
            <Array as="points">
              <mxPoint x="560" y="500" />
              <mxPoint x="560" y="277" />
            </Array>
          </mxGeometry>
        </mxCell>
        <mxCell id="KXTmrSOm8hdOlPfnSRq--78" value="0..n" style="edgeLabel;resizable=0;html=1;align=left;verticalAlign=top;" parent="KXTmrSOm8hdOlPfnSRq--77" connectable="0" vertex="1">
          <mxGeometry x="-1" relative="1" as="geometry">
            <mxPoint x="-30" as="offset" />
          </mxGeometry>
        </mxCell>
        <mxCell id="KXTmrSOm8hdOlPfnSRq--79" value="1" style="edgeLabel;resizable=0;html=1;align=right;verticalAlign=top;" parent="KXTmrSOm8hdOlPfnSRq--77" connectable="0" vertex="1">
          <mxGeometry x="1" relative="1" as="geometry">
            <mxPoint x="-10" as="offset" />
          </mxGeometry>
        </mxCell>
      </root>
    </mxGraphModel>
  </diagram>
</mxfile>
